<svg width="346" height="132" viewBox="0 0 346 132" fill="none" xmlns="http://www.w3.org/2000/svg">
<g clip-path="url(#clip0_2784_149954)">
<rect width="346" height="132" fill="#D1D5DB"/>
<g clip-path="url(#clip1_2784_149954)">
<rect width="346" height="195.669" fill="#D1D5DB"/>
<g filter="url(#filter0_d_2784_149954)">
<g clip-path="url(#clip2_2784_149954)">
<rect x="20.8906" y="20.8906" width="304.219" height="181.352" rx="5.22264" fill="#192534"/>
<path d="M35.3467 64.3486L40.6494 61.6973V62.542L37.0264 64.3438L40.6494 66.165V67L35.3467 64.3486ZM109.741 76.8945C110.044 77.054 110.265 77.2103 110.405 77.3633C110.549 77.5163 110.654 77.6742 110.723 77.8369C110.794 77.9964 110.83 78.1803 110.83 78.3887C110.83 78.5742 110.798 78.8167 110.732 79.1162L110.61 79.6729C110.545 79.9756 110.513 80.2002 110.513 80.3467C110.513 80.5452 110.589 80.7129 110.742 80.8496C110.898 80.9896 111.217 81.0596 111.699 81.0596H112.456V81.8164H111.689C110.798 81.8164 110.223 81.6732 109.966 81.3867C109.709 81.1003 109.58 80.7764 109.58 80.415C109.58 80.223 109.604 80.0163 109.653 79.7949L109.741 79.4043L109.824 78.9795L109.883 78.7207C109.906 78.6003 109.917 78.4831 109.917 78.3691C109.917 78.0664 109.814 77.8076 109.609 77.5928C109.408 77.3779 109.049 77.2705 108.535 77.2705H108.101V76.5137H108.535C109.043 76.5137 109.399 76.4079 109.604 76.1963C109.813 75.9847 109.917 75.721 109.917 75.4053C109.917 75.2881 109.906 75.1742 109.883 75.0635L109.824 74.8096L109.741 74.3848L109.653 73.9941C109.604 73.7695 109.58 73.5612 109.58 73.3691C109.58 73.0111 109.709 72.6888 109.966 72.4023C110.223 72.1126 110.798 71.9678 111.689 71.9678H112.456V72.7295H111.699C111.221 72.7295 110.903 72.7995 110.747 72.9395C110.591 73.0762 110.513 73.2454 110.513 73.4473C110.513 73.5905 110.545 73.8135 110.61 74.1162L110.732 74.6729C110.798 74.9723 110.83 75.2148 110.83 75.4004C110.83 75.6087 110.794 75.7943 110.723 75.957C110.654 76.1165 110.549 76.2728 110.405 76.4258C110.265 76.5788 110.044 76.735 109.741 76.8945ZM136.743 76.1377V76.8945H131.44V76.1377H136.743ZM136.743 77.8418V78.5986H131.44V77.8418H136.743ZM142.749 77.3486L137.446 80V79.1553L141.074 77.3535L137.446 75.5322V74.6973L142.749 77.3486ZM217.202 80V75.7568H215.991V75H217.202V74.7461C217.202 74.0267 217.284 73.4945 217.446 73.1494C217.609 72.8044 217.86 72.5212 218.198 72.2998C218.54 72.0785 218.991 71.9678 219.551 71.9678C219.974 71.9678 220.404 72.0117 220.84 72.0996V72.9639C220.368 72.8076 219.95 72.7295 219.585 72.7295C219.295 72.7295 219.04 72.7832 218.818 72.8906C218.597 72.998 218.423 73.1738 218.296 73.418C218.172 73.6589 218.11 74.069 218.11 74.6484V75H220.273V75.7568H218.11V80H217.202ZM225.522 78.7744C225.246 79.2301 224.912 79.5736 224.521 79.8047C224.134 80.0358 223.778 80.1514 223.452 80.1514C222.996 80.1514 222.586 79.9544 222.222 79.5605C221.86 79.1667 221.68 78.5693 221.68 77.7686C221.68 77.137 221.8 76.5739 222.041 76.0791C222.282 75.5811 222.604 75.1888 223.008 74.9023C223.411 74.6126 223.911 74.4678 224.507 74.4678C224.679 74.4678 224.94 74.4857 225.288 74.5215C225.34 74.528 225.418 74.5361 225.522 74.5459H226.436V78.3984C226.436 79.056 226.504 79.5898 226.641 80H225.693C225.622 79.7005 225.565 79.292 225.522 78.7744ZM225.522 77.6953V75.3564C225.2 75.2718 224.901 75.2295 224.624 75.2295C224.064 75.2295 223.597 75.446 223.223 75.8789C222.852 76.3118 222.666 76.901 222.666 77.6465C222.666 78.1868 222.767 78.5954 222.969 78.8721C223.174 79.1455 223.407 79.2822 223.667 79.2822C223.95 79.2822 224.263 79.139 224.604 78.8525C224.946 78.5661 225.252 78.1803 225.522 77.6953ZM229.409 80V72.8809H227.778V72.1191H230.317V79.2432H232.021V80H229.409ZM234.014 79.7119V78.75C234.378 78.9876 234.764 79.1553 235.171 79.2529C235.578 79.3473 235.923 79.3945 236.206 79.3945C236.665 79.3945 236.995 79.3213 237.197 79.1748C237.399 79.0251 237.5 78.8395 237.5 78.6182C237.5 78.4717 237.453 78.3464 237.358 78.2422C237.264 78.138 237.03 78.0094 236.655 77.8564L236.343 77.7295L235.713 77.4805C235.036 77.2168 234.609 76.9727 234.434 76.748C234.255 76.5267 234.165 76.2565 234.165 75.9375C234.165 75.4883 234.338 75.1188 234.683 74.8291C235.031 74.5394 235.594 74.3945 236.372 74.3945C236.955 74.3945 237.507 74.4792 238.027 74.6484V75.4736C237.428 75.2588 236.865 75.1514 236.338 75.1514C235.954 75.1514 235.653 75.2197 235.435 75.3564C235.22 75.4899 235.112 75.6576 235.112 75.8594C235.112 76.0547 235.207 76.2109 235.396 76.3281C235.581 76.4453 235.884 76.5804 236.304 76.7334L236.919 76.958C237.482 77.1631 237.878 77.3861 238.105 77.627C238.333 77.8678 238.447 78.1689 238.447 78.5303C238.447 79.0023 238.265 79.3913 237.9 79.6973C237.539 80 236.96 80.1514 236.162 80.1514C235.465 80.1514 234.749 80.0049 234.014 79.7119ZM244.492 79.6387C243.766 79.9837 243.079 80.1562 242.432 80.1562C241.94 80.1562 241.501 80.0342 241.113 79.79C240.726 79.5459 240.415 79.1976 240.181 78.7451C239.95 78.2894 239.834 77.8027 239.834 77.2852C239.834 76.7871 239.945 76.3086 240.166 75.8496C240.387 75.3906 240.697 75.0342 241.094 74.7803C241.491 74.5231 241.934 74.3945 242.422 74.3945C243.07 74.3945 243.589 74.6257 243.979 75.0879C244.373 75.5501 244.57 76.263 244.57 77.2266V77.4219H240.811C240.811 77.7995 240.889 78.1445 241.045 78.457C241.204 78.7695 241.413 79.0039 241.67 79.1602C241.927 79.3164 242.22 79.3945 242.549 79.3945C243.135 79.3945 243.783 79.1992 244.492 78.8086V79.6387ZM240.864 76.7432H243.584V76.6113C243.584 76.1654 243.475 75.8105 243.257 75.5469C243.039 75.2832 242.747 75.1514 242.383 75.1514C242.015 75.1514 241.696 75.2865 241.426 75.5566C241.159 75.8236 240.972 76.2191 240.864 76.7432ZM254.541 76.8945C254.238 76.735 254.015 76.5788 253.872 76.4258C253.732 76.2728 253.628 76.1165 253.56 75.957C253.491 75.7943 253.457 75.6087 253.457 75.4004C253.457 75.2148 253.488 74.9723 253.55 74.6729L253.672 74.1162C253.737 73.8135 253.77 73.5889 253.77 73.4424C253.77 73.2438 253.691 73.0762 253.535 72.9395C253.382 72.7995 253.065 72.7295 252.583 72.7295H251.826V71.9678H252.593C253.485 71.9678 254.059 72.1126 254.316 72.4023C254.577 72.6888 254.707 73.0111 254.707 73.3691C254.707 73.5645 254.681 73.7728 254.629 73.9941L254.541 74.3848L254.458 74.8096L254.399 75.0635C254.377 75.1872 254.365 75.306 254.365 75.4199C254.365 75.7194 254.466 75.9766 254.668 76.1914C254.873 76.4062 255.233 76.5137 255.747 76.5137H256.182V77.2705H255.747C255.239 77.2705 254.881 77.3779 254.673 77.5928C254.468 77.8044 254.365 78.068 254.365 78.3838C254.365 78.4977 254.377 78.61 254.399 78.7207L254.458 78.9795L254.541 79.4043L254.629 79.7949C254.681 80.0195 254.707 80.2279 254.707 80.4199C254.707 80.7812 254.577 81.1035 254.316 81.3867C254.059 81.6732 253.485 81.8164 252.593 81.8164H251.826V81.0596H252.583C253.065 81.0596 253.382 80.9896 253.535 80.8496C253.691 80.7129 253.77 80.5436 253.77 80.3418C253.77 80.1986 253.737 79.9756 253.672 79.6729L253.55 79.1162C253.488 78.8167 253.457 78.5742 253.457 78.3887C253.457 78.1803 253.491 77.9964 253.56 77.8369C253.628 77.6742 253.732 77.5163 253.872 77.3633C254.015 77.2103 254.238 77.054 254.541 76.8945ZM97.7295 89.8945C98.0322 90.054 98.2536 90.2103 98.3936 90.3633C98.5368 90.5163 98.6426 90.6742 98.7109 90.8369C98.7826 90.9964 98.8184 91.1803 98.8184 91.3887C98.8184 91.5742 98.7858 91.8167 98.7207 92.1162L98.5986 92.6729C98.5335 92.9756 98.501 93.2002 98.501 93.3467C98.501 93.5452 98.5775 93.7129 98.7305 93.8496C98.8867 93.9896 99.2057 94.0596 99.6875 94.0596H100.444V94.8164H99.6777C98.7858 94.8164 98.2113 94.6732 97.9541 94.3867C97.6969 94.1003 97.5684 93.7764 97.5684 93.415C97.5684 93.223 97.5928 93.0163 97.6416 92.7949L97.7295 92.4043L97.8125 91.9795L97.8711 91.7207C97.8939 91.6003 97.9053 91.4831 97.9053 91.3691C97.9053 91.0664 97.8027 90.8076 97.5977 90.5928C97.3958 90.3779 97.0378 90.2705 96.5234 90.2705H96.0889V89.5137H96.5234C97.0312 89.5137 97.3877 89.4079 97.5928 89.1963C97.8011 88.9847 97.9053 88.721 97.9053 88.4053C97.9053 88.2881 97.8939 88.1742 97.8711 88.0635L97.8125 87.8096L97.7295 87.3848L97.6416 86.9941C97.5928 86.7695 97.5684 86.5612 97.5684 86.3691C97.5684 86.0111 97.6969 85.6888 97.9541 85.4023C98.2113 85.1126 98.7858 84.9678 99.6777 84.9678H100.444V85.7295H99.6875C99.209 85.7295 98.8916 85.7995 98.7354 85.9395C98.5791 86.0762 98.501 86.2454 98.501 86.4473C98.501 86.5905 98.5335 86.8135 98.5986 87.1162L98.7207 87.6729C98.7858 87.9723 98.8184 88.2148 98.8184 88.4004C98.8184 88.6087 98.7826 88.7943 98.7109 88.957C98.6426 89.1165 98.5368 89.2728 98.3936 89.4258C98.2536 89.5788 98.0322 89.735 97.7295 89.8945ZM146.436 89.8945C146.133 89.735 145.91 89.5788 145.767 89.4258C145.627 89.2728 145.522 89.1165 145.454 88.957C145.386 88.7943 145.352 88.6087 145.352 88.4004C145.352 88.2148 145.382 87.9723 145.444 87.6729L145.566 87.1162C145.632 86.8135 145.664 86.5889 145.664 86.4424C145.664 86.2438 145.586 86.0762 145.43 85.9395C145.277 85.7995 144.959 85.7295 144.478 85.7295H143.721V84.9678H144.487C145.379 84.9678 145.954 85.1126 146.211 85.4023C146.471 85.6888 146.602 86.0111 146.602 86.3691C146.602 86.5645 146.576 86.7728 146.523 86.9941L146.436 87.3848L146.353 87.8096L146.294 88.0635C146.271 88.1872 146.26 88.306 146.26 88.4199C146.26 88.7194 146.361 88.9766 146.562 89.1914C146.768 89.4062 147.127 89.5137 147.642 89.5137H148.076V90.2705H147.642C147.134 90.2705 146.776 90.3779 146.567 90.5928C146.362 90.8044 146.26 91.068 146.26 91.3838C146.26 91.4977 146.271 91.61 146.294 91.7207L146.353 91.9795L146.436 92.4043L146.523 92.7949C146.576 93.0195 146.602 93.2279 146.602 93.4199C146.602 93.7812 146.471 94.1035 146.211 94.3867C145.954 94.6732 145.379 94.8164 144.487 94.8164H143.721V94.0596H144.478C144.959 94.0596 145.277 93.9896 145.43 93.8496C145.586 93.7129 145.664 93.5436 145.664 93.3418C145.664 93.1986 145.632 92.9756 145.566 92.6729L145.444 92.1162C145.382 91.8167 145.352 91.5742 145.352 91.3887C145.352 91.1803 145.386 90.9964 145.454 90.8369C145.522 90.6742 145.627 90.5163 145.767 90.3633C145.91 90.2103 146.133 90.054 146.436 89.8945ZM91.7236 102.895C92.0264 103.054 92.2477 103.21 92.3877 103.363C92.5309 103.516 92.6367 103.674 92.7051 103.837C92.7767 103.996 92.8125 104.18 92.8125 104.389C92.8125 104.574 92.7799 104.817 92.7148 105.116L92.5928 105.673C92.5277 105.976 92.4951 106.2 92.4951 106.347C92.4951 106.545 92.5716 106.713 92.7246 106.85C92.8809 106.99 93.1999 107.06 93.6816 107.06H94.4385V107.816H93.6719C92.7799 107.816 92.2054 107.673 91.9482 107.387C91.6911 107.1 91.5625 106.776 91.5625 106.415C91.5625 106.223 91.5869 106.016 91.6357 105.795L91.7236 105.404L91.8066 104.979L91.8652 104.721C91.888 104.6 91.8994 104.483 91.8994 104.369C91.8994 104.066 91.7969 103.808 91.5918 103.593C91.39 103.378 91.0319 103.271 90.5176 103.271H90.083V102.514H90.5176C91.0254 102.514 91.3818 102.408 91.5869 102.196C91.7952 101.985 91.8994 101.721 91.8994 101.405C91.8994 101.288 91.888 101.174 91.8652 101.063L91.8066 100.81L91.7236 100.385L91.6357 99.9941C91.5869 99.7695 91.5625 99.5612 91.5625 99.3691C91.5625 99.0111 91.6911 98.6888 91.9482 98.4023C92.2054 98.1126 92.7799 97.9678 93.6719 97.9678H94.4385V98.7295H93.6816C93.2031 98.7295 92.8857 98.7995 92.7295 98.9395C92.5732 99.0762 92.4951 99.2454 92.4951 99.4473C92.4951 99.5905 92.5277 99.8135 92.5928 100.116L92.7148 100.673C92.7799 100.972 92.8125 101.215 92.8125 101.4C92.8125 101.609 92.7767 101.794 92.7051 101.957C92.6367 102.117 92.5309 102.273 92.3877 102.426C92.2477 102.579 92.0264 102.735 91.7236 102.895ZM95.4053 103.349L100.708 100.697V101.542L97.085 103.344L100.708 105.165V106L95.4053 103.349ZM142.749 103.349L137.446 106V105.155L141.074 103.354L137.446 101.532V100.697L142.749 103.349ZM245.552 103.349L250.854 100.697V101.542L247.231 103.344L250.854 105.165V106L245.552 103.349ZM252.266 106.229H251.372L256.191 98.1973H257.056L252.266 106.229ZM298.901 103.349L293.599 106V105.155L297.227 103.354L293.599 101.532V100.697L298.901 103.349ZM302.588 102.895C302.285 102.735 302.062 102.579 301.919 102.426C301.779 102.273 301.675 102.117 301.606 101.957C301.538 101.794 301.504 101.609 301.504 101.4C301.504 101.215 301.535 100.972 301.597 100.673L301.719 100.116C301.784 99.8135 301.816 99.5889 301.816 99.4424C301.816 99.2438 301.738 99.0762 301.582 98.9395C301.429 98.7995 301.112 98.7295 300.63 98.7295H299.873V97.9678H300.64C301.532 97.9678 302.106 98.1126 302.363 98.4023C302.624 98.6888 302.754 99.0111 302.754 99.3691C302.754 99.5645 302.728 99.7728 302.676 99.9941L302.588 100.385L302.505 100.81L302.446 101.063C302.424 101.187 302.412 101.306 302.412 101.42C302.412 101.719 302.513 101.977 302.715 102.191C302.92 102.406 303.28 102.514 303.794 102.514H304.229V103.271H303.794C303.286 103.271 302.928 103.378 302.72 103.593C302.515 103.804 302.412 104.068 302.412 104.384C302.412 104.498 302.424 104.61 302.446 104.721L302.505 104.979L302.588 105.404L302.676 105.795C302.728 106.02 302.754 106.228 302.754 106.42C302.754 106.781 302.624 107.104 302.363 107.387C302.106 107.673 301.532 107.816 300.64 107.816H299.873V107.06H300.63C301.112 107.06 301.429 106.99 301.582 106.85C301.738 106.713 301.816 106.544 301.816 106.342C301.816 106.199 301.784 105.976 301.719 105.673L301.597 105.116C301.535 104.817 301.504 104.574 301.504 104.389C301.504 104.18 301.538 103.996 301.606 103.837C301.675 103.674 301.779 103.516 301.919 103.363C302.062 103.21 302.285 103.054 302.588 102.895ZM40.6494 117.349L35.3467 120V119.155L38.9746 117.354L35.3467 115.532V114.697L40.6494 117.349Z" fill="#96C4BE"/>
<path d="M42.1143 67H41.167L43.501 59.4219H44.502L46.8506 67H45.8105L45.293 65.335H42.627L42.1143 67ZM42.8613 64.5781H45.0732L44.1602 61.7021L43.9453 60.9404L43.7549 61.7021L42.8613 64.5781ZM49.2334 67V59.8809H47.6025V59.1191H50.1416V66.2432H51.8457V67H49.2334ZM58.3105 66.6387C57.5846 66.9837 56.8978 67.1562 56.25 67.1562C55.7585 67.1562 55.319 67.0342 54.9316 66.79C54.5443 66.5459 54.2334 66.1976 53.999 65.7451C53.7679 65.2894 53.6523 64.8027 53.6523 64.2852C53.6523 63.7871 53.763 63.3086 53.9844 62.8496C54.2057 62.3906 54.515 62.0342 54.9121 61.7803C55.3092 61.5231 55.752 61.3945 56.2402 61.3945C56.888 61.3945 57.4072 61.6257 57.7979 62.0879C58.1917 62.5501 58.3887 63.263 58.3887 64.2266V64.4219H54.6289C54.6289 64.7995 54.707 65.1445 54.8633 65.457C55.0228 65.7695 55.2311 66.0039 55.4883 66.1602C55.7454 66.3164 56.0384 66.3945 56.3672 66.3945C56.9531 66.3945 57.6009 66.1992 58.3105 65.8086V66.6387ZM54.6826 63.7432H57.4023V63.6113C57.4023 63.1654 57.2933 62.8105 57.0752 62.5469C56.8571 62.2832 56.5658 62.1514 56.2012 62.1514C55.8333 62.1514 55.5143 62.2865 55.2441 62.5566C54.9772 62.8236 54.79 63.2191 54.6826 63.7432ZM60.2441 67V61.5459H61.1523V62.7373C61.4355 62.2881 61.7594 61.9528 62.124 61.7314C62.4919 61.5068 62.9004 61.3945 63.3496 61.3945C63.6784 61.3945 64.0072 61.445 64.3359 61.5459V63.5137H63.4619V62.2686C63.3089 62.2425 63.1885 62.2295 63.1006 62.2295C62.762 62.2295 62.43 62.363 62.1045 62.6299C61.779 62.8968 61.4616 63.2972 61.1523 63.8311V67H60.2441ZM70.3467 66.7803C69.9202 66.9593 69.611 67.0651 69.4189 67.0977C69.2269 67.1335 69.0413 67.1514 68.8623 67.1514C68.4814 67.1514 68.1331 67.0781 67.8174 66.9316C67.5016 66.7852 67.2624 66.5687 67.0996 66.2822C66.9401 65.9958 66.8604 65.5531 66.8604 64.9541V62.7568H65.498V62H66.8604V59.8027H67.7686V62H70.1953V62.7568H67.7686V64.9395C67.7686 65.3789 67.8206 65.6898 67.9248 65.8721C68.029 66.0511 68.1673 66.1829 68.3398 66.2676C68.5156 66.3522 68.7223 66.3945 68.96 66.3945C69.3994 66.3945 69.8617 66.2562 70.3467 65.9795V66.7803ZM118.311 81.8164C117.409 81.7611 116.649 81.5055 116.03 81.0498C115.412 80.5973 114.917 79.9854 114.546 79.2139C114.178 78.4424 113.994 77.6693 113.994 76.8945C113.994 76.1198 114.178 75.3467 114.546 74.5752C114.917 73.8037 115.412 73.1917 116.03 72.7393C116.649 72.2835 117.409 72.0264 118.311 71.9678V72.7295C117.63 72.7913 117.044 73.0208 116.553 73.418C116.064 73.8118 115.68 74.3148 115.4 74.9268C115.12 75.5387 114.98 76.1947 114.98 76.8945C114.98 77.5944 115.12 78.2503 115.4 78.8623C115.68 79.4743 116.064 79.9772 116.553 80.3711C117.044 80.765 117.63 80.9945 118.311 81.0596V81.8164ZM119.849 71.9678C120.75 72.0264 121.51 72.2835 122.129 72.7393C122.747 73.1917 123.241 73.8037 123.608 74.5752C123.979 75.3467 124.165 76.1198 124.165 76.8945C124.165 77.6693 123.979 78.4424 123.608 79.2139C123.241 79.9854 122.747 80.5973 122.129 81.0498C121.51 81.5055 120.75 81.7611 119.849 81.8164V81.0596C120.529 80.9945 121.113 80.765 121.602 80.3711C122.093 79.9772 122.479 79.4743 122.759 78.8623C123.042 78.2503 123.184 77.5944 123.184 76.8945C123.184 76.1947 123.042 75.5387 122.759 74.9268C122.479 74.3148 122.093 73.8118 121.602 73.418C121.113 73.0208 120.529 72.7913 119.849 72.7295V71.9678ZM101.904 106V98.4219H103.384C104.272 98.4219 104.867 98.4902 105.166 98.627C105.469 98.7604 105.695 98.959 105.845 99.2227C105.994 99.4863 106.069 99.7874 106.069 100.126C106.069 100.393 106.025 100.647 105.938 100.888C105.85 101.125 105.719 101.343 105.547 101.542C105.374 101.737 105.124 101.923 104.795 102.099C105.397 102.34 105.804 102.636 106.016 102.987C106.23 103.339 106.338 103.69 106.338 104.042C106.338 104.377 106.247 104.703 106.064 105.019C105.885 105.334 105.633 105.577 105.308 105.746C104.982 105.915 104.461 106 103.745 106H101.904ZM102.891 101.835H103.926C104.261 101.695 104.505 101.549 104.658 101.396C104.814 101.239 104.93 101.067 105.005 100.878C105.083 100.686 105.122 100.476 105.122 100.248C105.122 99.89 105.016 99.623 104.805 99.4473C104.596 99.2715 104.188 99.1836 103.579 99.1836H102.891V101.835ZM102.891 105.243H103.823C104.344 105.243 104.728 105.121 104.976 104.877C105.226 104.63 105.352 104.333 105.352 103.988C105.352 103.734 105.283 103.502 105.146 103.29C105.01 103.075 104.798 102.906 104.512 102.782C104.225 102.655 103.776 102.592 103.164 102.592H102.891V105.243ZM112.314 100.546V106H111.406V104.804C111.113 105.253 110.788 105.59 110.43 105.814C110.072 106.039 109.714 106.151 109.355 106.151C109.036 106.151 108.743 106.067 108.477 105.897C108.213 105.725 108.029 105.5 107.925 105.224C107.821 104.944 107.769 104.4 107.769 103.593V100.546H108.677V103.705C108.677 104.229 108.701 104.576 108.75 104.745C108.802 104.911 108.895 105.048 109.028 105.155C109.165 105.263 109.312 105.316 109.468 105.316C109.787 105.316 110.129 105.167 110.493 104.867C110.861 104.564 111.165 104.184 111.406 103.725V100.546H112.314ZM118.394 105.78C117.967 105.959 117.658 106.065 117.466 106.098C117.274 106.133 117.088 106.151 116.909 106.151C116.528 106.151 116.18 106.078 115.864 105.932C115.549 105.785 115.309 105.569 115.146 105.282C114.987 104.996 114.907 104.553 114.907 103.954V101.757H113.545V101H114.907V98.8027H115.815V101H118.242V101.757H115.815V103.939C115.815 104.379 115.868 104.69 115.972 104.872C116.076 105.051 116.214 105.183 116.387 105.268C116.562 105.352 116.769 105.395 117.007 105.395C117.446 105.395 117.909 105.256 118.394 104.979V105.78ZM124.399 105.78C123.973 105.959 123.664 106.065 123.472 106.098C123.28 106.133 123.094 106.151 122.915 106.151C122.534 106.151 122.186 106.078 121.87 105.932C121.554 105.785 121.315 105.569 121.152 105.282C120.993 104.996 120.913 104.553 120.913 103.954V101.757H119.551V101H120.913V98.8027H121.821V101H124.248V101.757H121.821V103.939C121.821 104.379 121.873 104.69 121.978 104.872C122.082 105.051 122.22 105.183 122.393 105.268C122.568 105.352 122.775 105.395 123.013 105.395C123.452 105.395 123.914 105.256 124.399 104.979V105.78ZM128.091 106.151C127.31 106.151 126.685 105.88 126.216 105.336C125.747 104.789 125.513 104.101 125.513 103.271C125.513 102.44 125.747 101.754 126.216 101.21C126.685 100.666 127.31 100.395 128.091 100.395C128.869 100.395 129.492 100.666 129.961 101.21C130.43 101.754 130.664 102.44 130.664 103.271C130.664 104.101 130.43 104.789 129.961 105.336C129.492 105.88 128.869 106.151 128.091 106.151ZM128.091 105.395C128.576 105.395 128.962 105.206 129.248 104.828C129.535 104.451 129.678 103.931 129.678 103.271C129.678 102.613 129.535 102.095 129.248 101.718C128.962 101.34 128.576 101.151 128.091 101.151C127.603 101.151 127.215 101.34 126.929 101.718C126.642 102.095 126.499 102.613 126.499 103.271C126.499 103.931 126.642 104.451 126.929 104.828C127.215 105.206 127.603 105.395 128.091 105.395ZM131.851 106V100.546H132.759V101.737C133.019 101.317 133.333 100.989 133.701 100.751C134.069 100.513 134.437 100.395 134.805 100.395C135.127 100.395 135.42 100.481 135.684 100.653C135.947 100.823 136.131 101.046 136.235 101.322C136.343 101.599 136.396 102.143 136.396 102.953V106H135.488V102.841C135.488 102.317 135.462 101.972 135.41 101.806C135.361 101.636 135.269 101.498 135.132 101.391C134.998 101.283 134.852 101.229 134.692 101.229C134.373 101.229 134.03 101.381 133.662 101.684C133.298 101.986 132.996 102.366 132.759 102.821V106H131.851ZM258.057 106V98.4219H259.536C260.425 98.4219 261.019 98.4902 261.318 98.627C261.621 98.7604 261.847 98.959 261.997 99.2227C262.147 99.4863 262.222 99.7874 262.222 100.126C262.222 100.393 262.178 100.647 262.09 100.888C262.002 101.125 261.872 101.343 261.699 101.542C261.527 101.737 261.276 101.923 260.947 102.099C261.549 102.34 261.956 102.636 262.168 102.987C262.383 103.339 262.49 103.69 262.49 104.042C262.49 104.377 262.399 104.703 262.217 105.019C262.038 105.334 261.785 105.577 261.46 105.746C261.134 105.915 260.614 106 259.897 106H258.057ZM259.043 101.835H260.078C260.413 101.695 260.658 101.549 260.811 101.396C260.967 101.239 261.082 101.067 261.157 100.878C261.235 100.686 261.274 100.476 261.274 100.248C261.274 99.89 261.169 99.623 260.957 99.4473C260.749 99.2715 260.34 99.1836 259.731 99.1836H259.043V101.835ZM259.043 105.243H259.976C260.496 105.243 260.881 105.121 261.128 104.877C261.379 104.63 261.504 104.333 261.504 103.988C261.504 103.734 261.436 103.502 261.299 103.29C261.162 103.075 260.951 102.906 260.664 102.782C260.378 102.655 259.928 102.592 259.316 102.592H259.043V105.243ZM268.467 100.546V106H267.559V104.804C267.266 105.253 266.94 105.59 266.582 105.814C266.224 106.039 265.866 106.151 265.508 106.151C265.189 106.151 264.896 106.067 264.629 105.897C264.365 105.725 264.181 105.5 264.077 105.224C263.973 104.944 263.921 104.4 263.921 103.593V100.546H264.829V103.705C264.829 104.229 264.854 104.576 264.902 104.745C264.954 104.911 265.047 105.048 265.181 105.155C265.317 105.263 265.464 105.316 265.62 105.316C265.939 105.316 266.281 105.167 266.646 104.867C267.013 104.564 267.318 104.184 267.559 103.725V100.546H268.467ZM274.546 105.78C274.119 105.959 273.81 106.065 273.618 106.098C273.426 106.133 273.241 106.151 273.062 106.151C272.681 106.151 272.332 106.078 272.017 105.932C271.701 105.785 271.462 105.569 271.299 105.282C271.139 104.996 271.06 104.553 271.06 103.954V101.757H269.697V101H271.06V98.8027H271.968V101H274.395V101.757H271.968V103.939C271.968 104.379 272.02 104.69 272.124 104.872C272.228 105.051 272.367 105.183 272.539 105.268C272.715 105.352 272.922 105.395 273.159 105.395C273.599 105.395 274.061 105.256 274.546 104.979V105.78ZM280.552 105.78C280.125 105.959 279.816 106.065 279.624 106.098C279.432 106.133 279.246 106.151 279.067 106.151C278.687 106.151 278.338 106.078 278.022 105.932C277.707 105.785 277.467 105.569 277.305 105.282C277.145 104.996 277.065 104.553 277.065 103.954V101.757H275.703V101H277.065V98.8027H277.974V101H280.4V101.757H277.974V103.939C277.974 104.379 278.026 104.69 278.13 104.872C278.234 105.051 278.372 105.183 278.545 105.268C278.721 105.352 278.927 105.395 279.165 105.395C279.604 105.395 280.067 105.256 280.552 104.979V105.78ZM284.243 106.151C283.462 106.151 282.837 105.88 282.368 105.336C281.899 104.789 281.665 104.101 281.665 103.271C281.665 102.44 281.899 101.754 282.368 101.21C282.837 100.666 283.462 100.395 284.243 100.395C285.021 100.395 285.645 100.666 286.113 101.21C286.582 101.754 286.816 102.44 286.816 103.271C286.816 104.101 286.582 104.789 286.113 105.336C285.645 105.88 285.021 106.151 284.243 106.151ZM284.243 105.395C284.728 105.395 285.114 105.206 285.4 104.828C285.687 104.451 285.83 103.931 285.83 103.271C285.83 102.613 285.687 102.095 285.4 101.718C285.114 101.34 284.728 101.151 284.243 101.151C283.755 101.151 283.368 101.34 283.081 101.718C282.795 102.095 282.651 102.613 282.651 103.271C282.651 103.931 282.795 104.451 283.081 104.828C283.368 105.206 283.755 105.395 284.243 105.395ZM288.003 106V100.546H288.911V101.737C289.172 101.317 289.486 100.989 289.854 100.751C290.221 100.513 290.589 100.395 290.957 100.395C291.279 100.395 291.572 100.481 291.836 100.653C292.1 100.823 292.284 101.046 292.388 101.322C292.495 101.599 292.549 102.143 292.549 102.953V106H291.641V102.841C291.641 102.317 291.615 101.972 291.562 101.806C291.514 101.636 291.421 101.498 291.284 101.391C291.151 101.283 291.004 101.229 290.845 101.229C290.526 101.229 290.182 101.381 289.814 101.684C289.45 101.986 289.149 102.366 288.911 102.821V106H288.003Z" fill="#EE979F"/>
<path d="M50.0146 80.1514C49.2334 80.1514 48.6084 79.8796 48.1396 79.3359C47.6709 78.7891 47.4365 78.1006 47.4365 77.2705C47.4365 76.4404 47.6709 75.7536 48.1396 75.21C48.6084 74.6663 49.2334 74.3945 50.0146 74.3945C50.7926 74.3945 51.416 74.6663 51.8848 75.21C52.3535 75.7536 52.5879 76.4404 52.5879 77.2705C52.5879 78.1006 52.3535 78.7891 51.8848 79.3359C51.416 79.8796 50.7926 80.1514 50.0146 80.1514ZM50.0146 79.3945C50.4997 79.3945 50.8854 79.2057 51.1719 78.8281C51.4583 78.4505 51.6016 77.9313 51.6016 77.2705C51.6016 76.613 51.4583 76.0954 51.1719 75.7178C50.8854 75.3402 50.4997 75.1514 50.0146 75.1514C49.5264 75.1514 49.139 75.3402 48.8525 75.7178C48.5661 76.0954 48.4229 76.613 48.4229 77.2705C48.4229 77.9313 48.5661 78.4505 48.8525 78.8281C49.139 79.2057 49.5264 79.3945 50.0146 79.3945ZM53.7744 80V74.5459H54.6826V75.7373C54.943 75.3174 55.2572 74.9886 55.625 74.751C55.9928 74.5133 56.3607 74.3945 56.7285 74.3945C57.0508 74.3945 57.3438 74.4808 57.6074 74.6533C57.8711 74.8226 58.055 75.0456 58.1592 75.3223C58.2666 75.599 58.3203 76.1426 58.3203 76.9531V80H57.4121V76.8408C57.4121 76.3167 57.3861 75.9717 57.334 75.8057C57.2852 75.6364 57.1924 75.498 57.0557 75.3906C56.9222 75.2832 56.7757 75.2295 56.6162 75.2295C56.2972 75.2295 55.9538 75.3809 55.5859 75.6836C55.2214 75.9863 54.9202 76.3656 54.6826 76.8213V80H53.7744ZM59.7803 80V72.4219H61.5771C62.404 72.4219 63.0176 72.5667 63.418 72.8564C63.8216 73.1429 64.1243 73.5775 64.3262 74.1602C64.528 74.7428 64.6289 75.4329 64.6289 76.2305C64.6289 76.9857 64.5215 77.6497 64.3066 78.2227C64.0951 78.7923 63.7939 79.2318 63.4033 79.541C63.0127 79.847 62.404 80 61.5771 80H59.7803ZM60.7666 79.165H61.4258C62.0931 79.165 62.5684 79.0462 62.8516 78.8086C63.138 78.571 63.3415 78.2422 63.4619 77.8223C63.5856 77.3991 63.6475 76.8164 63.6475 76.0742C63.6475 75.3483 63.5758 74.79 63.4326 74.3994C63.2894 74.0088 63.0843 73.7093 62.8174 73.501C62.5505 73.2894 62.1126 73.1836 61.5039 73.1836H60.7666V79.165ZM67.3145 80V75.3027H65.8008V74.5459H68.2227V79.2432H69.7412V80H67.3145ZM67.1631 72.5781C67.1631 72.373 67.2331 72.2201 67.373 72.1191C67.513 72.0182 67.6449 71.9678 67.7686 71.9678C67.8955 71.9678 68.029 72.0182 68.1689 72.1191C68.3089 72.2201 68.3789 72.373 68.3789 72.5781C68.3789 72.7799 68.3089 72.9313 68.1689 73.0322C68.029 73.1331 67.8955 73.1836 67.7686 73.1836C67.6449 73.1836 67.513 73.1331 67.373 73.0322C67.2331 72.9313 67.1631 72.7799 67.1631 72.5781ZM71.8555 79.7119V78.75C72.2201 78.9876 72.6058 79.1553 73.0127 79.2529C73.4196 79.3473 73.7646 79.3945 74.0479 79.3945C74.5068 79.3945 74.8372 79.3213 75.0391 79.1748C75.2409 79.0251 75.3418 78.8395 75.3418 78.6182C75.3418 78.4717 75.2946 78.3464 75.2002 78.2422C75.1058 78.138 74.8714 78.0094 74.4971 77.8564L74.1846 77.7295L73.5547 77.4805C72.8776 77.2168 72.4512 76.9727 72.2754 76.748C72.0964 76.5267 72.0068 76.2565 72.0068 75.9375C72.0068 75.4883 72.1794 75.1188 72.5244 74.8291C72.8727 74.5394 73.4359 74.3945 74.2139 74.3945C74.7965 74.3945 75.3483 74.4792 75.8691 74.6484V75.4736C75.2702 75.2588 74.707 75.1514 74.1797 75.1514C73.7956 75.1514 73.4945 75.2197 73.2764 75.3564C73.0615 75.4899 72.9541 75.6576 72.9541 75.8594C72.9541 76.0547 73.0485 76.2109 73.2373 76.3281C73.4229 76.4453 73.7256 76.5804 74.1455 76.7334L74.7607 76.958C75.3239 77.1631 75.7194 77.3861 75.9473 77.627C76.1751 77.8678 76.2891 78.1689 76.2891 78.5303C76.2891 79.0023 76.1068 79.3913 75.7422 79.6973C75.3809 80 74.8014 80.1514 74.0039 80.1514C73.3073 80.1514 72.5911 80.0049 71.8555 79.7119ZM77.3877 80V74.5459H78.1836V75.7959C78.4342 75.2653 78.667 74.8991 78.8818 74.6973C79.0999 74.4954 79.3197 74.3945 79.541 74.3945C79.8047 74.3945 80.0163 74.4987 80.1758 74.707C80.3385 74.9121 80.4199 75.2051 80.4199 75.5859V75.8789C80.5273 75.5469 80.6559 75.2783 80.8057 75.0732C80.9587 74.8649 81.1165 74.7005 81.2793 74.5801C81.4421 74.4564 81.6292 74.3945 81.8408 74.3945C82.0752 74.3945 82.2754 74.4938 82.4414 74.6924C82.6074 74.891 82.6904 75.2865 82.6904 75.8789V80H81.8945V76.2744C81.8945 75.9684 81.8848 75.7601 81.8652 75.6494C81.8457 75.5355 81.8066 75.4492 81.748 75.3906C81.6895 75.332 81.626 75.3027 81.5576 75.3027C81.3883 75.3027 81.2061 75.4329 81.0107 75.6934C80.8187 75.9505 80.6217 76.3786 80.4199 76.9775V80H79.6582V76.2793C79.6582 75.7975 79.611 75.5143 79.5166 75.4297C79.4222 75.3451 79.3376 75.3027 79.2627 75.3027C79.0967 75.3027 78.9176 75.4476 78.7256 75.7373C78.5368 76.027 78.3561 76.3981 78.1836 76.8506V80H77.3877ZM85.332 80V75.3027H83.8184V74.5459H86.2402V79.2432H87.7588V80H85.332ZM85.1807 72.5781C85.1807 72.373 85.2507 72.2201 85.3906 72.1191C85.5306 72.0182 85.6624 71.9678 85.7861 71.9678C85.9131 71.9678 86.0465 72.0182 86.1865 72.1191C86.3265 72.2201 86.3965 72.373 86.3965 72.5781C86.3965 72.7799 86.3265 72.9313 86.1865 73.0322C86.0465 73.1331 85.9131 73.1836 85.7861 73.1836C85.6624 73.1836 85.5306 73.1331 85.3906 73.0322C85.2507 72.9313 85.1807 72.7799 85.1807 72.5781ZM89.873 79.7119V78.75C90.2376 78.9876 90.6234 79.1553 91.0303 79.2529C91.4372 79.3473 91.7822 79.3945 92.0654 79.3945C92.5244 79.3945 92.8548 79.3213 93.0566 79.1748C93.2585 79.0251 93.3594 78.8395 93.3594 78.6182C93.3594 78.4717 93.3122 78.3464 93.2178 78.2422C93.1234 78.138 92.889 78.0094 92.5146 77.8564L92.2021 77.7295L91.5723 77.4805C90.8952 77.2168 90.4688 76.9727 90.293 76.748C90.1139 76.5267 90.0244 76.2565 90.0244 75.9375C90.0244 75.4883 90.1969 75.1188 90.542 74.8291C90.8903 74.5394 91.4535 74.3945 92.2314 74.3945C92.8141 74.3945 93.3659 74.4792 93.8867 74.6484V75.4736C93.2878 75.2588 92.7246 75.1514 92.1973 75.1514C91.8132 75.1514 91.512 75.2197 91.2939 75.3564C91.0791 75.4899 90.9717 75.6576 90.9717 75.8594C90.9717 76.0547 91.0661 76.2109 91.2549 76.3281C91.4404 76.4453 91.7432 76.5804 92.1631 76.7334L92.7783 76.958C93.3415 77.1631 93.737 77.3861 93.9648 77.627C94.1927 77.8678 94.3066 78.1689 94.3066 78.5303C94.3066 79.0023 94.1243 79.3913 93.7598 79.6973C93.3984 80 92.819 80.1514 92.0215 80.1514C91.3249 80.1514 90.6087 80.0049 89.873 79.7119ZM95.8789 79.7119V78.75C96.2435 78.9876 96.6292 79.1553 97.0361 79.2529C97.443 79.3473 97.7881 79.3945 98.0713 79.3945C98.5303 79.3945 98.8607 79.3213 99.0625 79.1748C99.2643 79.0251 99.3652 78.8395 99.3652 78.6182C99.3652 78.4717 99.318 78.3464 99.2236 78.2422C99.1292 78.138 98.8949 78.0094 98.5205 77.8564L98.208 77.7295L97.5781 77.4805C96.901 77.2168 96.4746 76.9727 96.2988 76.748C96.1198 76.5267 96.0303 76.2565 96.0303 75.9375C96.0303 75.4883 96.2028 75.1188 96.5479 74.8291C96.8962 74.5394 97.4593 74.3945 98.2373 74.3945C98.82 74.3945 99.3717 74.4792 99.8926 74.6484V75.4736C99.2936 75.2588 98.7305 75.1514 98.2031 75.1514C97.819 75.1514 97.5179 75.2197 97.2998 75.3564C97.085 75.4899 96.9775 75.6576 96.9775 75.8594C96.9775 76.0547 97.0719 76.2109 97.2607 76.3281C97.4463 76.4453 97.749 76.5804 98.1689 76.7334L98.7842 76.958C99.3473 77.1631 99.7428 77.3861 99.9707 77.627C100.199 77.8678 100.312 78.1689 100.312 78.5303C100.312 79.0023 100.13 79.3913 99.7656 79.6973C99.4043 80 98.8249 80.1514 98.0273 80.1514C97.3307 80.1514 96.6146 80.0049 95.8789 79.7119ZM49.541 93L47.1729 87.5459H48.1689L50.0391 91.8623L51.9482 87.5459H52.8564L50.4688 93H49.541ZM55.3027 93V88.3027H53.7891V87.5459H56.2109V92.2432H57.7295V93H55.3027ZM55.1514 85.5781C55.1514 85.373 55.2214 85.2201 55.3613 85.1191C55.5013 85.0182 55.6331 84.9678 55.7568 84.9678C55.8838 84.9678 56.0173 85.0182 56.1572 85.1191C56.2972 85.2201 56.3672 85.373 56.3672 85.5781C56.3672 85.7799 56.2972 85.9313 56.1572 86.0322C56.0173 86.1331 55.8838 86.1836 55.7568 86.1836C55.6331 86.1836 55.5013 86.1331 55.3613 86.0322C55.2214 85.9313 55.1514 85.7799 55.1514 85.5781ZM59.8438 92.7119V91.75C60.2083 91.9876 60.5941 92.1553 61.001 92.2529C61.4079 92.3473 61.7529 92.3945 62.0361 92.3945C62.4951 92.3945 62.8255 92.3213 63.0273 92.1748C63.2292 92.0251 63.3301 91.8395 63.3301 91.6182C63.3301 91.4717 63.2829 91.3464 63.1885 91.2422C63.0941 91.138 62.8597 91.0094 62.4854 90.8564L62.1729 90.7295L61.543 90.4805C60.8659 90.2168 60.4395 89.9727 60.2637 89.748C60.0846 89.5267 59.9951 89.2565 59.9951 88.9375C59.9951 88.4883 60.1676 88.1188 60.5127 87.8291C60.861 87.5394 61.4242 87.3945 62.2021 87.3945C62.7848 87.3945 63.3366 87.4792 63.8574 87.6484V88.4736C63.2585 88.2588 62.6953 88.1514 62.168 88.1514C61.7839 88.1514 61.4827 88.2197 61.2646 88.3564C61.0498 88.4899 60.9424 88.6576 60.9424 88.8594C60.9424 89.0547 61.0368 89.2109 61.2256 89.3281C61.4111 89.4453 61.7139 89.5804 62.1338 89.7334L62.749 89.958C63.3122 90.1631 63.7077 90.3861 63.9355 90.627C64.1634 90.8678 64.2773 91.1689 64.2773 91.5303C64.2773 92.0023 64.0951 92.3913 63.7305 92.6973C63.3691 93 62.7897 93.1514 61.9922 93.1514C61.2956 93.1514 60.5794 93.0049 59.8438 92.7119ZM67.3145 93V88.3027H65.8008V87.5459H68.2227V92.2432H69.7412V93H67.3145ZM67.1631 85.5781C67.1631 85.373 67.2331 85.2201 67.373 85.1191C67.513 85.0182 67.6449 84.9678 67.7686 84.9678C67.8955 84.9678 68.029 85.0182 68.1689 85.1191C68.3089 85.2201 68.3789 85.373 68.3789 85.5781C68.3789 85.7799 68.3089 85.9313 68.1689 86.0322C68.029 86.1331 67.8955 86.1836 67.7686 86.1836C67.6449 86.1836 67.513 86.1331 67.373 86.0322C67.2331 85.9313 67.1631 85.7799 67.1631 85.5781ZM72.6318 88.7715C72.9118 88.3158 73.2454 87.9723 73.6328 87.7412C74.0202 87.5101 74.3766 87.3945 74.7021 87.3945C75.1579 87.3945 75.568 87.5915 75.9326 87.9854C76.2972 88.3792 76.4795 88.9766 76.4795 89.7773C76.4795 90.4089 76.3574 90.9736 76.1133 91.4717C75.8724 91.9665 75.5501 92.3587 75.1465 92.6484C74.7428 92.9349 74.2432 93.0781 73.6475 93.0781C73.4782 93.0781 73.2178 93.0602 72.8662 93.0244C72.8141 93.0179 72.736 93.0098 72.6318 93H71.7236V85.1191H72.6318V88.7715ZM72.6318 89.8506V92.1895C72.9606 92.2741 73.2633 92.3164 73.54 92.3164C74.0902 92.3164 74.5524 92.1016 74.9268 91.6719C75.3044 91.2389 75.4932 90.6481 75.4932 89.8994C75.4932 89.3558 75.3906 88.9473 75.1855 88.6738C74.9805 88.4004 74.7477 88.2637 74.4873 88.2637C74.2041 88.2637 73.8916 88.4069 73.5498 88.6934C73.2113 88.9798 72.9053 89.3656 72.6318 89.8506ZM79.2627 93V85.8809H77.6318V85.1191H80.1709V92.2432H81.875V93H79.2627ZM88.3398 92.6387C87.6139 92.9837 86.9271 93.1562 86.2793 93.1562C85.7878 93.1562 85.3483 93.0342 84.9609 92.79C84.5736 92.5459 84.2627 92.1976 84.0283 91.7451C83.7972 91.2894 83.6816 90.8027 83.6816 90.2852C83.6816 89.7871 83.7923 89.3086 84.0137 88.8496C84.235 88.3906 84.5443 88.0342 84.9414 87.7803C85.3385 87.5231 85.7812 87.3945 86.2695 87.3945C86.9173 87.3945 87.4365 87.6257 87.8271 88.0879C88.221 88.5501 88.418 89.263 88.418 90.2266V90.4219H84.6582C84.6582 90.7995 84.7363 91.1445 84.8926 91.457C85.0521 91.7695 85.2604 92.0039 85.5176 92.1602C85.7747 92.3164 86.0677 92.3945 86.3965 92.3945C86.9824 92.3945 87.6302 92.1992 88.3398 91.8086V92.6387ZM84.7119 89.7432H87.4316V89.6113C87.4316 89.1654 87.3226 88.8105 87.1045 88.5469C86.8864 88.2832 86.5951 88.1514 86.2305 88.1514C85.8626 88.1514 85.5436 88.2865 85.2734 88.5566C85.0065 88.8236 84.8193 89.2191 84.7119 89.7432ZM103.594 93L101.226 87.5459H102.222L104.092 91.8623L106.001 87.5459H106.909L104.521 93H103.594ZM109.355 93V88.3027H107.842V87.5459H110.264V92.2432H111.782V93H109.355ZM109.204 85.5781C109.204 85.373 109.274 85.2201 109.414 85.1191C109.554 85.0182 109.686 84.9678 109.81 84.9678C109.937 84.9678 110.07 85.0182 110.21 85.1191C110.35 85.2201 110.42 85.373 110.42 85.5781C110.42 85.7799 110.35 85.9313 110.21 86.0322C110.07 86.1331 109.937 86.1836 109.81 86.1836C109.686 86.1836 109.554 86.1331 109.414 86.0322C109.274 85.9313 109.204 85.7799 109.204 85.5781ZM113.896 92.7119V91.75C114.261 91.9876 114.647 92.1553 115.054 92.2529C115.461 92.3473 115.806 92.3945 116.089 92.3945C116.548 92.3945 116.878 92.3213 117.08 92.1748C117.282 92.0251 117.383 91.8395 117.383 91.6182C117.383 91.4717 117.336 91.3464 117.241 91.2422C117.147 91.138 116.912 91.0094 116.538 90.8564L116.226 90.7295L115.596 90.4805C114.919 90.2168 114.492 89.9727 114.316 89.748C114.137 89.5267 114.048 89.2565 114.048 88.9375C114.048 88.4883 114.22 88.1188 114.565 87.8291C114.914 87.5394 115.477 87.3945 116.255 87.3945C116.838 87.3945 117.389 87.4792 117.91 87.6484V88.4736C117.311 88.2588 116.748 88.1514 116.221 88.1514C115.837 88.1514 115.535 88.2197 115.317 88.3564C115.103 88.4899 114.995 88.6576 114.995 88.8594C114.995 89.0547 115.09 89.2109 115.278 89.3281C115.464 89.4453 115.767 89.5804 116.187 89.7334L116.802 89.958C117.365 90.1631 117.76 90.3861 117.988 90.627C118.216 90.8678 118.33 91.1689 118.33 91.5303C118.33 92.0023 118.148 92.3913 117.783 92.6973C117.422 93 116.842 93.1514 116.045 93.1514C115.348 93.1514 114.632 93.0049 113.896 92.7119ZM121.367 93V88.3027H119.854V87.5459H122.275V92.2432H123.794V93H121.367ZM121.216 85.5781C121.216 85.373 121.286 85.2201 121.426 85.1191C121.566 85.0182 121.698 84.9678 121.821 84.9678C121.948 84.9678 122.082 85.0182 122.222 85.1191C122.362 85.2201 122.432 85.373 122.432 85.5781C122.432 85.7799 122.362 85.9313 122.222 86.0322C122.082 86.1331 121.948 86.1836 121.821 86.1836C121.698 86.1836 121.566 86.1331 121.426 86.0322C121.286 85.9313 121.216 85.7799 121.216 85.5781ZM126.685 88.7715C126.965 88.3158 127.298 87.9723 127.686 87.7412C128.073 87.5101 128.429 87.3945 128.755 87.3945C129.211 87.3945 129.621 87.5915 129.985 87.9854C130.35 88.3792 130.532 88.9766 130.532 89.7773C130.532 90.4089 130.41 90.9736 130.166 91.4717C129.925 91.9665 129.603 92.3587 129.199 92.6484C128.796 92.9349 128.296 93.0781 127.7 93.0781C127.531 93.0781 127.271 93.0602 126.919 93.0244C126.867 93.0179 126.789 93.0098 126.685 93H125.776V85.1191H126.685V88.7715ZM126.685 89.8506V92.1895C127.013 92.2741 127.316 92.3164 127.593 92.3164C128.143 92.3164 128.605 92.1016 128.979 91.6719C129.357 91.2389 129.546 90.6481 129.546 89.8994C129.546 89.3558 129.443 88.9473 129.238 88.6738C129.033 88.4004 128.8 88.2637 128.54 88.2637C128.257 88.2637 127.944 88.4069 127.603 88.6934C127.264 88.9798 126.958 89.3656 126.685 89.8506ZM133.315 93V85.8809H131.685V85.1191H134.224V92.2432H135.928V93H133.315ZM142.393 92.6387C141.667 92.9837 140.98 93.1562 140.332 93.1562C139.84 93.1562 139.401 93.0342 139.014 92.79C138.626 92.5459 138.315 92.1976 138.081 91.7451C137.85 91.2894 137.734 90.8027 137.734 90.2852C137.734 89.7871 137.845 89.3086 138.066 88.8496C138.288 88.3906 138.597 88.0342 138.994 87.7803C139.391 87.5231 139.834 87.3945 140.322 87.3945C140.97 87.3945 141.489 87.6257 141.88 88.0879C142.274 88.5501 142.471 89.263 142.471 90.2266V90.4219H138.711C138.711 90.7995 138.789 91.1445 138.945 91.457C139.105 91.7695 139.313 92.0039 139.57 92.1602C139.827 92.3164 140.12 92.3945 140.449 92.3945C141.035 92.3945 141.683 92.1992 142.393 91.8086V92.6387ZM138.765 89.7432H141.484V89.6113C141.484 89.1654 141.375 88.8105 141.157 88.5469C140.939 88.2832 140.648 88.1514 140.283 88.1514C139.915 88.1514 139.596 88.2865 139.326 88.5566C139.059 88.8236 138.872 89.2191 138.765 89.7432ZM51.3525 104.774C51.0758 105.23 50.7422 105.574 50.3516 105.805C49.9642 106.036 49.6077 106.151 49.2822 106.151C48.8265 106.151 48.4163 105.954 48.0518 105.561C47.6904 105.167 47.5098 104.569 47.5098 103.769C47.5098 103.137 47.6302 102.574 47.8711 102.079C48.112 101.581 48.4342 101.189 48.8379 100.902C49.2415 100.613 49.7412 100.468 50.3369 100.468C50.5094 100.468 50.7699 100.486 51.1182 100.521C51.1702 100.528 51.2484 100.536 51.3525 100.546H52.2656V104.398C52.2656 105.056 52.334 105.59 52.4707 106H51.5234C51.4518 105.701 51.3949 105.292 51.3525 104.774ZM51.3525 103.695V101.356C51.0303 101.272 50.7308 101.229 50.4541 101.229C49.8942 101.229 49.4271 101.446 49.0527 101.879C48.6816 102.312 48.4961 102.901 48.4961 103.646C48.4961 104.187 48.597 104.595 48.7988 104.872C49.0039 105.146 49.2367 105.282 49.4971 105.282C49.7803 105.282 50.0928 105.139 50.4346 104.853C50.7764 104.566 51.0824 104.18 51.3525 103.695ZM58.3643 105.844C57.7555 106.049 57.1761 106.151 56.626 106.151C56.0791 106.151 55.5924 106.026 55.166 105.775C54.7428 105.521 54.4124 105.18 54.1748 104.75C53.9372 104.317 53.8184 103.826 53.8184 103.275C53.8184 102.449 54.0869 101.762 54.624 101.215C55.1644 100.668 55.8154 100.395 56.5771 100.395C57.1403 100.395 57.736 100.5 58.3643 100.712V101.586C57.7295 101.296 57.1615 101.151 56.6602 101.151C56.3281 101.151 56.0156 101.234 55.7227 101.4C55.4297 101.563 55.2035 101.819 55.0439 102.167C54.8844 102.515 54.8047 102.873 54.8047 103.241C54.8047 103.733 54.9577 104.201 55.2637 104.647C55.5729 105.093 56.0563 105.316 56.7139 105.316C56.9124 105.316 57.1077 105.303 57.2998 105.277C57.4919 105.248 57.8467 105.146 58.3643 104.97V105.844ZM64.3408 105.78C63.9144 105.959 63.6051 106.065 63.4131 106.098C63.221 106.133 63.0355 106.151 62.8564 106.151C62.4756 106.151 62.1273 106.078 61.8115 105.932C61.4958 105.785 61.2565 105.569 61.0938 105.282C60.9342 104.996 60.8545 104.553 60.8545 103.954V101.757H59.4922V101H60.8545V98.8027H61.7627V101H64.1895V101.757H61.7627V103.939C61.7627 104.379 61.8148 104.69 61.9189 104.872C62.0231 105.051 62.1615 105.183 62.334 105.268C62.5098 105.352 62.7165 105.395 62.9541 105.395C63.3936 105.395 63.8558 105.256 64.3408 104.979V105.78ZM67.3145 106V101.303H65.8008V100.546H68.2227V105.243H69.7412V106H67.3145ZM67.1631 98.5781C67.1631 98.373 67.2331 98.2201 67.373 98.1191C67.513 98.0182 67.6449 97.9678 67.7686 97.9678C67.8955 97.9678 68.029 98.0182 68.1689 98.1191C68.3089 98.2201 68.3789 98.373 68.3789 98.5781C68.3789 98.7799 68.3089 98.9313 68.1689 99.0322C68.029 99.1331 67.8955 99.1836 67.7686 99.1836C67.6449 99.1836 67.513 99.1331 67.373 99.0322C67.2331 98.9313 67.1631 98.7799 67.1631 98.5781ZM74.0381 106.151C73.2568 106.151 72.6318 105.88 72.1631 105.336C71.6943 104.789 71.46 104.101 71.46 103.271C71.46 102.44 71.6943 101.754 72.1631 101.21C72.6318 100.666 73.2568 100.395 74.0381 100.395C74.8161 100.395 75.4395 100.666 75.9082 101.21C76.377 101.754 76.6113 102.44 76.6113 103.271C76.6113 104.101 76.377 104.789 75.9082 105.336C75.4395 105.88 74.8161 106.151 74.0381 106.151ZM74.0381 105.395C74.5231 105.395 74.9089 105.206 75.1953 104.828C75.4818 104.451 75.625 103.931 75.625 103.271C75.625 102.613 75.4818 102.095 75.1953 101.718C74.9089 101.34 74.5231 101.151 74.0381 101.151C73.5498 101.151 73.1624 101.34 72.876 101.718C72.5895 102.095 72.4463 102.613 72.4463 103.271C72.4463 103.931 72.5895 104.451 72.876 104.828C73.1624 105.206 73.5498 105.395 74.0381 105.395ZM77.7979 106V100.546H78.7061V101.737C78.9665 101.317 79.2806 100.989 79.6484 100.751C80.0163 100.513 80.3841 100.395 80.752 100.395C81.0742 100.395 81.3672 100.481 81.6309 100.653C81.8945 100.823 82.0785 101.046 82.1826 101.322C82.29 101.599 82.3438 102.143 82.3438 102.953V106H81.4355V102.841C81.4355 102.317 81.4095 101.972 81.3574 101.806C81.3086 101.636 81.2158 101.498 81.0791 101.391C80.9456 101.283 80.7992 101.229 80.6396 101.229C80.3206 101.229 79.9772 101.381 79.6094 101.684C79.2448 101.986 78.9437 102.366 78.7061 102.821V106H77.7979Z" fill="#C0A6C3"/>
<path d="M106.714 76.1377V76.8945H101.411V76.1377H106.714ZM106.714 77.8418V78.5986H101.411V77.8418H106.714ZM214.404 81.8164C213.503 81.7611 212.743 81.5055 212.124 81.0498C211.506 80.5973 211.011 79.9854 210.64 79.2139C210.272 78.4424 210.088 77.6693 210.088 76.8945C210.088 76.1198 210.272 75.3467 210.64 74.5752C211.011 73.8037 211.506 73.1917 212.124 72.7393C212.743 72.2835 213.503 72.0264 214.404 71.9678V72.7295C213.724 72.7913 213.138 73.0208 212.646 73.418C212.158 73.8118 211.774 74.3148 211.494 74.9268C211.214 75.5387 211.074 76.1947 211.074 76.8945C211.074 77.5944 211.214 78.2503 211.494 78.8623C211.774 79.4743 212.158 79.9772 212.646 80.3711C213.138 80.765 213.724 80.9945 214.404 81.0596V81.8164ZM245.972 71.9678C246.873 72.0264 247.633 72.2835 248.252 72.7393C248.87 73.1917 249.364 73.8037 249.731 74.5752C250.103 75.3467 250.288 76.1198 250.288 76.8945C250.288 77.6693 250.103 78.4424 249.731 79.2139C249.364 79.9854 248.87 80.5973 248.252 81.0498C247.633 81.5055 246.873 81.7611 245.972 81.8164V81.0596C246.652 80.9945 247.236 80.765 247.725 80.3711C248.216 79.9772 248.602 79.4743 248.882 78.8623C249.165 78.2503 249.307 77.5944 249.307 76.8945C249.307 76.1947 249.165 75.5387 248.882 74.9268C248.602 74.3148 248.216 73.8118 247.725 73.418C247.236 73.0208 246.652 72.7913 245.972 72.7295V71.9678ZM94.7021 89.1377V89.8945H89.3994V89.1377H94.7021ZM94.7021 90.8418V91.5986H89.3994V90.8418H94.7021ZM88.6963 102.138V102.895H83.3936V102.138H88.6963ZM88.6963 103.842V104.599H83.3936V103.842H88.6963Z" fill="#E6E6E6"/>
<path d="M149.932 79.7119V78.75C150.296 78.9876 150.682 79.1553 151.089 79.2529C151.496 79.3473 151.841 79.3945 152.124 79.3945C152.583 79.3945 152.913 79.3213 153.115 79.1748C153.317 79.0251 153.418 78.8395 153.418 78.6182C153.418 78.4717 153.371 78.3464 153.276 78.2422C153.182 78.138 152.948 78.0094 152.573 77.8564L152.261 77.7295L151.631 77.4805C150.954 77.2168 150.527 76.9727 150.352 76.748C150.173 76.5267 150.083 76.2565 150.083 75.9375C150.083 75.4883 150.256 75.1188 150.601 74.8291C150.949 74.5394 151.512 74.3945 152.29 74.3945C152.873 74.3945 153.424 74.4792 153.945 74.6484V75.4736C153.346 75.2588 152.783 75.1514 152.256 75.1514C151.872 75.1514 151.571 75.2197 151.353 75.3564C151.138 75.4899 151.03 75.6576 151.03 75.8594C151.03 76.0547 151.125 76.2109 151.313 76.3281C151.499 76.4453 151.802 76.5804 152.222 76.7334L152.837 76.958C153.4 77.1631 153.796 77.3861 154.023 77.627C154.251 77.8678 154.365 78.1689 154.365 78.5303C154.365 79.0023 154.183 79.3913 153.818 79.6973C153.457 80 152.878 80.1514 152.08 80.1514C151.383 80.1514 150.667 80.0049 149.932 79.7119ZM160.41 79.6387C159.684 79.9837 158.997 80.1562 158.35 80.1562C157.858 80.1562 157.419 80.0342 157.031 79.79C156.644 79.5459 156.333 79.1976 156.099 78.7451C155.868 78.2894 155.752 77.8027 155.752 77.2852C155.752 76.7871 155.863 76.3086 156.084 75.8496C156.305 75.3906 156.615 75.0342 157.012 74.7803C157.409 74.5231 157.852 74.3945 158.34 74.3945C158.988 74.3945 159.507 74.6257 159.897 75.0879C160.291 75.5501 160.488 76.263 160.488 77.2266V77.4219H156.729C156.729 77.7995 156.807 78.1445 156.963 78.457C157.122 78.7695 157.331 79.0039 157.588 79.1602C157.845 79.3164 158.138 79.3945 158.467 79.3945C159.053 79.3945 159.701 79.1992 160.41 78.8086V79.6387ZM156.782 76.7432H159.502V76.6113C159.502 76.1654 159.393 75.8105 159.175 75.5469C158.957 75.2832 158.665 75.1514 158.301 75.1514C157.933 75.1514 157.614 75.2865 157.344 75.5566C157.077 75.8236 156.89 76.2191 156.782 76.7432ZM166.44 79.7803C166.014 79.9593 165.705 80.0651 165.513 80.0977C165.321 80.1335 165.135 80.1514 164.956 80.1514C164.575 80.1514 164.227 80.0781 163.911 79.9316C163.595 79.7852 163.356 79.5687 163.193 79.2822C163.034 78.9958 162.954 78.5531 162.954 77.9541V75.7568H161.592V75H162.954V72.8027H163.862V75H166.289V75.7568H163.862V77.9395C163.862 78.3789 163.914 78.6898 164.019 78.8721C164.123 79.0511 164.261 79.1829 164.434 79.2676C164.609 79.3522 164.816 79.3945 165.054 79.3945C165.493 79.3945 165.955 79.2562 166.44 78.9795V79.7803ZM172.026 72.4219H172.974L170.64 80H169.639L167.29 72.4219H168.33L169.976 77.7148L170.19 78.4863L170.381 77.7197L172.026 72.4219ZM175.42 80V75.3027H173.906V74.5459H176.328V79.2432H177.847V80H175.42ZM175.269 72.5781C175.269 72.373 175.339 72.2201 175.479 72.1191C175.618 72.0182 175.75 71.9678 175.874 71.9678C176.001 71.9678 176.134 72.0182 176.274 72.1191C176.414 72.2201 176.484 72.373 176.484 72.5781C176.484 72.7799 176.414 72.9313 176.274 73.0322C176.134 73.1331 176.001 73.1836 175.874 73.1836C175.75 73.1836 175.618 73.1331 175.479 73.0322C175.339 72.9313 175.269 72.7799 175.269 72.5781ZM179.961 79.7119V78.75C180.326 78.9876 180.711 79.1553 181.118 79.2529C181.525 79.3473 181.87 79.3945 182.153 79.3945C182.612 79.3945 182.943 79.3213 183.145 79.1748C183.346 79.0251 183.447 78.8395 183.447 78.6182C183.447 78.4717 183.4 78.3464 183.306 78.2422C183.211 78.138 182.977 78.0094 182.603 77.8564L182.29 77.7295L181.66 77.4805C180.983 77.2168 180.557 76.9727 180.381 76.748C180.202 76.5267 180.112 76.2565 180.112 75.9375C180.112 75.4883 180.285 75.1188 180.63 74.8291C180.978 74.5394 181.541 74.3945 182.319 74.3945C182.902 74.3945 183.454 74.4792 183.975 74.6484V75.4736C183.376 75.2588 182.812 75.1514 182.285 75.1514C181.901 75.1514 181.6 75.2197 181.382 75.3564C181.167 75.4899 181.06 75.6576 181.06 75.8594C181.06 76.0547 181.154 76.2109 181.343 76.3281C181.528 76.4453 181.831 76.5804 182.251 76.7334L182.866 76.958C183.429 77.1631 183.825 77.3861 184.053 77.627C184.281 77.8678 184.395 78.1689 184.395 78.5303C184.395 79.0023 184.212 79.3913 183.848 79.6973C183.486 80 182.907 80.1514 182.109 80.1514C181.413 80.1514 180.697 80.0049 179.961 79.7119ZM187.432 80V75.3027H185.918V74.5459H188.34V79.2432H189.858V80H187.432ZM187.28 72.5781C187.28 72.373 187.35 72.2201 187.49 72.1191C187.63 72.0182 187.762 71.9678 187.886 71.9678C188.013 71.9678 188.146 72.0182 188.286 72.1191C188.426 72.2201 188.496 72.373 188.496 72.5781C188.496 72.7799 188.426 72.9313 188.286 73.0322C188.146 73.1331 188.013 73.1836 187.886 73.1836C187.762 73.1836 187.63 73.1331 187.49 73.0322C187.35 72.9313 187.28 72.7799 187.28 72.5781ZM192.749 75.7715C193.029 75.3158 193.363 74.9723 193.75 74.7412C194.137 74.5101 194.494 74.3945 194.819 74.3945C195.275 74.3945 195.685 74.5915 196.05 74.9854C196.414 75.3792 196.597 75.9766 196.597 76.7773C196.597 77.4089 196.475 77.9736 196.23 78.4717C195.99 78.9665 195.667 79.3587 195.264 79.6484C194.86 79.9349 194.36 80.0781 193.765 80.0781C193.595 80.0781 193.335 80.0602 192.983 80.0244C192.931 80.0179 192.853 80.0098 192.749 80H191.841V72.1191H192.749V75.7715ZM192.749 76.8506V79.1895C193.078 79.2741 193.381 79.3164 193.657 79.3164C194.207 79.3164 194.67 79.1016 195.044 78.6719C195.422 78.2389 195.61 77.6481 195.61 76.8994C195.61 76.3558 195.508 75.9473 195.303 75.6738C195.098 75.4004 194.865 75.2637 194.604 75.2637C194.321 75.2637 194.009 75.4069 193.667 75.6934C193.328 75.9798 193.022 76.3656 192.749 76.8506ZM199.38 80V72.8809H197.749V72.1191H200.288V79.2432H201.992V80H199.38ZM208.457 79.6387C207.731 79.9837 207.044 80.1562 206.396 80.1562C205.905 80.1562 205.465 80.0342 205.078 79.79C204.691 79.5459 204.38 79.1976 204.146 78.7451C203.914 78.2894 203.799 77.8027 203.799 77.2852C203.799 76.7871 203.91 76.3086 204.131 75.8496C204.352 75.3906 204.661 75.0342 205.059 74.7803C205.456 74.5231 205.898 74.3945 206.387 74.3945C207.035 74.3945 207.554 74.6257 207.944 75.0879C208.338 75.5501 208.535 76.263 208.535 77.2266V77.4219H204.775C204.775 77.7995 204.854 78.1445 205.01 78.457C205.169 78.7695 205.378 79.0039 205.635 79.1602C205.892 79.3164 206.185 79.3945 206.514 79.3945C207.1 79.3945 207.747 79.1992 208.457 78.8086V79.6387ZM204.829 76.7432H207.549V76.6113C207.549 76.1654 207.44 75.8105 207.222 75.5469C207.004 75.2832 206.712 75.1514 206.348 75.1514C205.98 75.1514 205.661 75.2865 205.391 75.5566C205.124 75.8236 204.937 76.2191 204.829 76.7432Z" fill="#EEEB97"/>
<path d="M148.188 105.165V106H144.097V98.4219H148.11V99.1836H145.083V101.757H147.808V102.514H145.083V105.165H148.188ZM149.868 106V100.546H150.776V101.737C151.037 101.317 151.351 100.989 151.719 100.751C152.087 100.513 152.454 100.395 152.822 100.395C153.145 100.395 153.438 100.481 153.701 100.653C153.965 100.823 154.149 101.046 154.253 101.322C154.36 101.599 154.414 102.143 154.414 102.953V106H153.506V102.841C153.506 102.317 153.48 101.972 153.428 101.806C153.379 101.636 153.286 101.498 153.149 101.391C153.016 101.283 152.869 101.229 152.71 101.229C152.391 101.229 152.048 101.381 151.68 101.684C151.315 101.986 151.014 102.366 150.776 102.821V106H149.868ZM159.458 104.774C159.181 105.23 158.848 105.574 158.457 105.805C158.07 106.036 157.713 106.151 157.388 106.151C156.932 106.151 156.522 105.954 156.157 105.561C155.796 105.167 155.615 104.569 155.615 103.769C155.615 103.137 155.736 102.574 155.977 102.079C156.217 101.581 156.54 101.189 156.943 100.902C157.347 100.613 157.847 100.468 158.442 100.468C158.615 100.468 158.875 100.486 159.224 100.521C159.276 100.528 159.354 100.536 159.458 100.546H160.371V104.398C160.371 105.056 160.439 105.59 160.576 106H159.629C159.557 105.701 159.5 105.292 159.458 104.774ZM159.458 103.695V101.356C159.136 101.272 158.836 101.229 158.56 101.229C158 101.229 157.533 101.446 157.158 101.879C156.787 102.312 156.602 102.901 156.602 103.646C156.602 104.187 156.702 104.595 156.904 104.872C157.109 105.146 157.342 105.282 157.603 105.282C157.886 105.282 158.198 105.139 158.54 104.853C158.882 104.566 159.188 104.18 159.458 103.695ZM162.72 101.771C163 101.316 163.333 100.972 163.721 100.741C164.108 100.51 164.465 100.395 164.79 100.395C165.246 100.395 165.656 100.591 166.021 100.985C166.385 101.379 166.567 101.977 166.567 102.777C166.567 103.409 166.445 103.974 166.201 104.472C165.96 104.966 165.638 105.359 165.234 105.648C164.831 105.935 164.331 106.078 163.735 106.078C163.566 106.078 163.306 106.06 162.954 106.024C162.902 106.018 162.824 106.01 162.72 106H161.812V98.1191H162.72V101.771ZM162.72 102.851V105.189C163.049 105.274 163.351 105.316 163.628 105.316C164.178 105.316 164.64 105.102 165.015 104.672C165.392 104.239 165.581 103.648 165.581 102.899C165.581 102.356 165.479 101.947 165.273 101.674C165.068 101.4 164.836 101.264 164.575 101.264C164.292 101.264 163.979 101.407 163.638 101.693C163.299 101.98 162.993 102.366 162.72 102.851ZM169.351 106V98.8809H167.72V98.1191H170.259V105.243H171.963V106H169.351ZM178.428 105.639C177.702 105.984 177.015 106.156 176.367 106.156C175.876 106.156 175.436 106.034 175.049 105.79C174.661 105.546 174.351 105.198 174.116 104.745C173.885 104.289 173.77 103.803 173.77 103.285C173.77 102.787 173.88 102.309 174.102 101.85C174.323 101.391 174.632 101.034 175.029 100.78C175.426 100.523 175.869 100.395 176.357 100.395C177.005 100.395 177.524 100.626 177.915 101.088C178.309 101.55 178.506 102.263 178.506 103.227V103.422H174.746C174.746 103.799 174.824 104.145 174.98 104.457C175.14 104.77 175.348 105.004 175.605 105.16C175.863 105.316 176.156 105.395 176.484 105.395C177.07 105.395 177.718 105.199 178.428 104.809V105.639ZM174.8 102.743H177.52V102.611C177.52 102.165 177.41 101.811 177.192 101.547C176.974 101.283 176.683 101.151 176.318 101.151C175.951 101.151 175.632 101.286 175.361 101.557C175.094 101.824 174.907 102.219 174.8 102.743ZM187.676 106L185.308 100.546H186.304L188.174 104.862L190.083 100.546H190.991L188.604 106H187.676ZM196.445 105.639C195.719 105.984 195.033 106.156 194.385 106.156C193.893 106.156 193.454 106.034 193.066 105.79C192.679 105.546 192.368 105.198 192.134 104.745C191.903 104.289 191.787 103.803 191.787 103.285C191.787 102.787 191.898 102.309 192.119 101.85C192.34 101.391 192.65 101.034 193.047 100.78C193.444 100.523 193.887 100.395 194.375 100.395C195.023 100.395 195.542 100.626 195.933 101.088C196.326 101.55 196.523 102.263 196.523 103.227V103.422H192.764C192.764 103.799 192.842 104.145 192.998 104.457C193.158 104.77 193.366 105.004 193.623 105.16C193.88 105.316 194.173 105.395 194.502 105.395C195.088 105.395 195.736 105.199 196.445 104.809V105.639ZM192.817 102.743H195.537V102.611C195.537 102.165 195.428 101.811 195.21 101.547C194.992 101.283 194.701 101.151 194.336 101.151C193.968 101.151 193.649 101.286 193.379 101.557C193.112 101.824 192.925 102.219 192.817 102.743ZM198.379 106V100.546H199.287V101.737C199.57 101.288 199.894 100.953 200.259 100.731C200.627 100.507 201.035 100.395 201.484 100.395C201.813 100.395 202.142 100.445 202.471 100.546V102.514H201.597V101.269C201.444 101.243 201.323 101.229 201.235 101.229C200.897 101.229 200.565 101.363 200.239 101.63C199.914 101.897 199.596 102.297 199.287 102.831V106H198.379ZM203.984 105.712V104.75C204.349 104.988 204.735 105.155 205.142 105.253C205.549 105.347 205.894 105.395 206.177 105.395C206.636 105.395 206.966 105.321 207.168 105.175C207.37 105.025 207.471 104.84 207.471 104.618C207.471 104.472 207.424 104.346 207.329 104.242C207.235 104.138 207 104.009 206.626 103.856L206.313 103.729L205.684 103.48C205.007 103.217 204.58 102.973 204.404 102.748C204.225 102.527 204.136 102.257 204.136 101.938C204.136 101.488 204.308 101.119 204.653 100.829C205.002 100.539 205.565 100.395 206.343 100.395C206.925 100.395 207.477 100.479 207.998 100.648V101.474C207.399 101.259 206.836 101.151 206.309 101.151C205.924 101.151 205.623 101.22 205.405 101.356C205.19 101.49 205.083 101.658 205.083 101.859C205.083 102.055 205.177 102.211 205.366 102.328C205.552 102.445 205.854 102.58 206.274 102.733L206.89 102.958C207.453 103.163 207.848 103.386 208.076 103.627C208.304 103.868 208.418 104.169 208.418 104.53C208.418 105.002 208.236 105.391 207.871 105.697C207.51 106 206.93 106.151 206.133 106.151C205.436 106.151 204.72 106.005 203.984 105.712ZM211.455 106V101.303H209.941V100.546H212.363V105.243H213.882V106H211.455ZM211.304 98.5781C211.304 98.373 211.374 98.2201 211.514 98.1191C211.654 98.0182 211.785 97.9678 211.909 97.9678C212.036 97.9678 212.17 98.0182 212.31 98.1191C212.45 98.2201 212.52 98.373 212.52 98.5781C212.52 98.7799 212.45 98.9313 212.31 99.0322C212.17 99.1331 212.036 99.1836 211.909 99.1836C211.785 99.1836 211.654 99.1331 211.514 99.0322C211.374 98.9313 211.304 98.7799 211.304 98.5781ZM218.179 106.151C217.397 106.151 216.772 105.88 216.304 105.336C215.835 104.789 215.601 104.101 215.601 103.271C215.601 102.44 215.835 101.754 216.304 101.21C216.772 100.666 217.397 100.395 218.179 100.395C218.957 100.395 219.58 100.666 220.049 101.21C220.518 101.754 220.752 102.44 220.752 103.271C220.752 104.101 220.518 104.789 220.049 105.336C219.58 105.88 218.957 106.151 218.179 106.151ZM218.179 105.395C218.664 105.395 219.049 105.206 219.336 104.828C219.622 104.451 219.766 103.931 219.766 103.271C219.766 102.613 219.622 102.095 219.336 101.718C219.049 101.34 218.664 101.151 218.179 101.151C217.69 101.151 217.303 101.34 217.017 101.718C216.73 102.095 216.587 102.613 216.587 103.271C216.587 103.931 216.73 104.451 217.017 104.828C217.303 105.206 217.69 105.395 218.179 105.395ZM221.938 106V100.546H222.847V101.737C223.107 101.317 223.421 100.989 223.789 100.751C224.157 100.513 224.525 100.395 224.893 100.395C225.215 100.395 225.508 100.481 225.771 100.653C226.035 100.823 226.219 101.046 226.323 101.322C226.431 101.599 226.484 102.143 226.484 102.953V106H225.576V102.841C225.576 102.317 225.55 101.972 225.498 101.806C225.449 101.636 225.356 101.498 225.22 101.391C225.086 101.283 224.94 101.229 224.78 101.229C224.461 101.229 224.118 101.381 223.75 101.684C223.385 101.986 223.084 102.366 222.847 102.821V106H221.938ZM229.473 106V101.303H227.959V100.546H230.381V105.243H231.899V106H229.473ZM229.321 98.5781C229.321 98.373 229.391 98.2201 229.531 98.1191C229.671 98.0182 229.803 97.9678 229.927 97.9678C230.054 97.9678 230.187 98.0182 230.327 98.1191C230.467 98.2201 230.537 98.373 230.537 98.5781C230.537 98.7799 230.467 98.9313 230.327 99.0322C230.187 99.1331 230.054 99.1836 229.927 99.1836C229.803 99.1836 229.671 99.1331 229.531 99.0322C229.391 98.9313 229.321 98.7799 229.321 98.5781ZM233.95 106V100.546H234.858V101.737C235.119 101.317 235.433 100.989 235.801 100.751C236.169 100.513 236.536 100.395 236.904 100.395C237.227 100.395 237.52 100.481 237.783 100.653C238.047 100.823 238.231 101.046 238.335 101.322C238.442 101.599 238.496 102.143 238.496 102.953V106H237.588V102.841C237.588 102.317 237.562 101.972 237.51 101.806C237.461 101.636 237.368 101.498 237.231 101.391C237.098 101.283 236.951 101.229 236.792 101.229C236.473 101.229 236.13 101.381 235.762 101.684C235.397 101.986 235.096 102.366 234.858 102.821V106H233.95ZM243.599 104.774C243.322 105.23 242.988 105.574 242.598 105.805C242.21 106.036 241.854 106.151 241.528 106.151C241.073 106.151 240.662 105.954 240.298 105.561C239.937 105.167 239.756 104.569 239.756 103.769C239.756 103.137 239.876 102.574 240.117 102.079C240.358 101.581 240.68 101.189 241.084 100.902C241.488 100.613 241.987 100.468 242.583 100.468C242.756 100.468 243.016 100.486 243.364 100.521C243.416 100.528 243.494 100.536 243.599 100.546H244.512V104.403C244.512 105.321 244.499 105.881 244.473 106.083C244.45 106.288 244.411 106.495 244.355 106.703C244.225 107.188 243.927 107.571 243.462 107.851C243 108.131 242.44 108.271 241.782 108.271C241.121 108.271 240.452 108.101 239.775 107.763V106.845C240.033 107.021 240.348 107.175 240.723 107.309C241.1 107.445 241.465 107.514 241.816 107.514C242.093 107.514 242.355 107.47 242.603 107.382C242.85 107.294 243.05 107.167 243.203 107.001C243.356 106.835 243.46 106.641 243.516 106.42C243.571 106.202 243.599 105.91 243.599 105.546V104.774ZM243.599 103.695V101.356C243.276 101.272 242.977 101.229 242.7 101.229C242.14 101.229 241.673 101.446 241.299 101.879C240.928 102.312 240.742 102.901 240.742 103.646C240.742 104.187 240.843 104.595 241.045 104.872C241.25 105.146 241.483 105.282 241.743 105.282C242.026 105.282 242.339 105.139 242.681 104.853C243.022 104.566 243.328 104.18 243.599 103.695Z" fill="#CCCCCC"/>
<rect x="20.8906" y="20.8906" width="304.151" height="23.5019" fill="#5F6B7A"/>
<circle cx="32.8466" cy="32.8442" r="4.77241" fill="#D1D5DB"/>
<circle cx="47.206" cy="32.8442" r="4.77241" fill="#D1D5DB"/>
<g filter="url(#filter1_d_2784_149954)">
<path fill-rule="evenodd" clip-rule="evenodd" d="M144.818 25.4607C144.159 25.4607 143.625 25.9949 143.625 26.6538V29.2087V30.7959V33.2653C143.625 34.2537 144.426 35.0549 145.415 35.0549H157.503C158.492 35.0549 159.293 34.2537 159.293 33.2653V29.2087C159.293 28.2203 158.492 27.4191 157.503 27.4191H149.549L149.252 26.3374C149.11 25.8196 148.639 25.4607 148.102 25.4607H144.818Z" fill="#B5BBC5"/>
<g filter="url(#filter2_d_2784_149954)">
<rect x="143.625" y="29.3777" width="15.6679" height="10.4453" rx="1.78966" fill="#F2F8FD"/>
</g>
</g>
<path opacity="0.7" d="M166.833 36.4604H165.968L168.101 29.5343H169.016L171.162 36.4604H170.212L169.739 34.9387H167.302L166.833 36.4604ZM167.516 34.2469H169.538L168.703 31.6184L168.507 30.9222L168.333 31.6184L167.516 34.2469ZM172.769 32.5957C173.025 32.1792 173.33 31.8653 173.684 31.6541C174.038 31.4429 174.363 31.3373 174.661 31.3373C175.077 31.3373 175.452 31.5173 175.786 31.8772C176.119 32.2372 176.285 32.7832 176.285 33.5151C176.285 34.0922 176.174 34.6084 175.951 35.0636C175.73 35.5158 175.436 35.8743 175.067 36.1391C174.698 36.4009 174.241 36.5319 173.697 36.5319C173.542 36.5319 173.304 36.5155 172.983 36.4828C172.935 36.4768 172.864 36.4694 172.769 36.4604V38.3973H171.939V31.4756H172.769V32.5957ZM172.769 33.582V35.7196C173.069 35.797 173.346 35.8357 173.599 35.8357C174.102 35.8357 174.524 35.6393 174.866 35.2466C175.211 34.8509 175.384 34.3109 175.384 33.6266C175.384 33.1298 175.29 32.7564 175.103 32.5065C174.915 32.2566 174.703 32.1316 174.465 32.1316C174.206 32.1316 173.92 32.2625 173.608 32.5243C173.298 32.7862 173.019 33.1387 172.769 33.582ZM178.258 32.5957C178.514 32.1792 178.819 31.8653 179.173 31.6541C179.527 31.4429 179.853 31.3373 180.15 31.3373C180.567 31.3373 180.941 31.5173 181.275 31.8772C181.608 32.2372 181.774 32.7832 181.774 33.5151C181.774 34.0922 181.663 34.6084 181.44 35.0636C181.22 35.5158 180.925 35.8743 180.556 36.1391C180.187 36.4009 179.731 36.5319 179.186 36.5319C179.031 36.5319 178.793 36.5155 178.472 36.4828C178.424 36.4768 178.353 36.4694 178.258 36.4604V38.3973H177.428V31.4756H178.258V32.5957ZM178.258 33.582V35.7196C178.558 35.797 178.835 35.8357 179.088 35.8357C179.591 35.8357 180.013 35.6393 180.355 35.2466C180.7 34.8509 180.873 34.3109 180.873 33.6266C180.873 33.1298 180.779 32.7564 180.592 32.5065C180.404 32.2566 180.192 32.1316 179.954 32.1316C179.695 32.1316 179.409 32.2625 179.097 32.5243C178.787 32.7862 178.508 33.1387 178.258 33.582ZM185.028 36.6702C184.828 36.6702 184.657 36.5988 184.515 36.456C184.372 36.3132 184.3 36.1421 184.3 35.9428C184.3 35.7405 184.372 35.5694 184.515 35.4296C184.66 35.2868 184.831 35.2154 185.028 35.2154C185.224 35.2154 185.394 35.2868 185.537 35.4296C185.682 35.5694 185.755 35.7405 185.755 35.9428C185.755 36.1421 185.684 36.3132 185.541 36.456C185.398 36.5988 185.227 36.6702 185.028 36.6702ZM188.544 38.4151V37.6386C189.009 37.7755 189.4 37.8439 189.718 37.8439C189.995 37.8439 190.23 37.7948 190.423 37.6966C190.617 37.6014 190.767 37.4393 190.874 37.2102C190.984 36.9811 191.039 36.5824 191.039 36.0142V32.1673H188.924V31.4756H191.869V35.858C191.869 36.7029 191.769 37.289 191.57 37.6163C191.371 37.9465 191.13 38.1831 190.847 38.3259C190.565 38.4687 190.178 38.5401 189.687 38.5401C189.333 38.5401 188.952 38.4984 188.544 38.4151ZM190.901 29.6771C190.901 29.4897 190.963 29.3499 191.088 29.2576C191.216 29.1654 191.338 29.1193 191.454 29.1193C191.57 29.1193 191.691 29.1654 191.816 29.2576C191.944 29.3499 192.007 29.4897 192.007 29.6771C192.007 29.8616 191.944 29.9999 191.816 30.0922C191.691 30.1844 191.57 30.2305 191.454 30.2305C191.338 30.2305 191.216 30.1844 191.088 30.0922C190.963 29.9999 190.901 29.8616 190.901 29.6771ZM194.016 36.1971V35.318C194.349 35.5352 194.701 35.6884 195.073 35.7777C195.445 35.8639 195.761 35.9071 196.019 35.9071C196.439 35.9071 196.741 35.8401 196.925 35.7063C197.11 35.5694 197.202 35.3998 197.202 35.1975C197.202 35.0636 197.159 34.9491 197.073 34.8539C196.986 34.7587 196.772 34.6412 196.43 34.5013L196.144 34.3853L195.569 34.1577C194.95 33.9167 194.56 33.6936 194.399 33.4883C194.236 33.286 194.154 33.039 194.154 32.7475C194.154 32.3369 194.312 31.9992 194.627 31.7344C194.945 31.4697 195.46 31.3373 196.171 31.3373C196.704 31.3373 197.208 31.4146 197.684 31.5693V32.3235C197.137 32.1272 196.622 32.029 196.14 32.029C195.789 32.029 195.514 32.0915 195.314 32.2164C195.118 32.3384 195.02 32.4916 195.02 32.6761C195.02 32.8546 195.106 32.9974 195.279 33.1045C195.448 33.2116 195.725 33.3351 196.109 33.4749L196.671 33.6802C197.186 33.8676 197.547 34.0714 197.755 34.2916C197.964 34.5117 198.068 34.7869 198.068 35.1172C198.068 35.5486 197.901 35.9041 197.568 36.1838C197.238 36.4604 196.708 36.5988 195.979 36.5988C195.343 36.5988 194.688 36.4649 194.016 36.1971Z" fill="white"/>
</g>
</g>
</g>
</g>
<defs>
<filter id="filter0_d_2784_149954" x="10.1527" y="12.5389" width="325.695" height="202.828" filterUnits="userSpaceOnUse" color-interpolation-filters="sRGB">
<feFlood flood-opacity="0" result="BackgroundImageFix"/>
<feColorMatrix in="SourceAlpha" type="matrix" values="0 0 0 0 0 0 0 0 0 0 0 0 0 0 0 0 0 0 127 0" result="hardAlpha"/>
<feMorphology radius="1.1931" operator="dilate" in="SourceAlpha" result="effect1_dropShadow_2784_149954"/>
<feOffset dy="2.38621"/>
<feGaussianBlur stdDeviation="4.77241"/>
<feColorMatrix type="matrix" values="0 0 0 0 0 0 0 0 0 0.027451 0 0 0 0 0.0862745 0 0 0 0.12 0"/>
<feBlend mode="normal" in2="BackgroundImageFix" result="effect1_dropShadow_2784_149954"/>
<feBlend mode="normal" in="SourceGraphic" in2="effect1_dropShadow_2784_149954" result="shape"/>
</filter>
<filter id="filter1_d_2784_149954" x="129.916" y="12.4041" width="43.0868" height="41.7812" filterUnits="userSpaceOnUse" color-interpolation-filters="sRGB">
<feFlood flood-opacity="0" result="BackgroundImageFix"/>
<feColorMatrix in="SourceAlpha" type="matrix" values="0 0 0 0 0 0 0 0 0 0 0 0 0 0 0 0 0 0 127 0" result="hardAlpha"/>
<feMorphology radius="0.65283" operator="dilate" in="SourceAlpha" result="effect1_dropShadow_2784_149954"/>
<feOffset dy="0.65283"/>
<feGaussianBlur stdDeviation="6.5283"/>
<feColorMatrix type="matrix" values="0 0 0 0 0 0 0 0 0 0.027451 0 0 0 0 0.0862745 0 0 0 0.15 0"/>
<feBlend mode="normal" in2="BackgroundImageFix" result="effect1_dropShadow_2784_149954"/>
<feBlend mode="normal" in="SourceGraphic" in2="effect1_dropShadow_2784_149954" result="shape"/>
</filter>
<filter id="filter2_d_2784_149954" x="132.887" y="21.026" width="37.1438" height="31.9212" filterUnits="userSpaceOnUse" color-interpolation-filters="sRGB">
<feFlood flood-opacity="0" result="BackgroundImageFix"/>
<feColorMatrix in="SourceAlpha" type="matrix" values="0 0 0 0 0 0 0 0 0 0 0 0 0 0 0 0 0 0 127 0" result="hardAlpha"/>
<feMorphology radius="1.1931" operator="dilate" in="SourceAlpha" result="effect1_dropShadow_2784_149954"/>
<feOffset dy="2.38621"/>
<feGaussianBlur stdDeviation="4.77241"/>
<feColorMatrix type="matrix" values="0 0 0 0 0 0 0 0 0 0.027451 0 0 0 0 0.0862745 0 0 0 0.12 0"/>
<feBlend mode="normal" in2="BackgroundImageFix" result="effect1_dropShadow_2784_149954"/>
<feBlend mode="normal" in="SourceGraphic" in2="effect1_dropShadow_2784_149954" result="shape"/>
</filter>
<clipPath id="clip0_2784_149954">
<rect width="346" height="132" fill="white"/>
</clipPath>
<clipPath id="clip1_2784_149954">
<rect width="346" height="195.669" fill="white"/>
</clipPath>
<clipPath id="clip2_2784_149954">
<rect x="20.8906" y="20.8906" width="304.219" height="181.352" rx="5.22264" fill="white"/>
</clipPath>
</defs>
</svg>
